<?xml version="1.0" encoding="UTF-8" standalone="no"?>
<svg xmlns="http://www.w3.org/2000/svg" xmlns:xlink="http://www.w3.org/1999/xlink" height="100" width="324" version="1.1" viewBox="0 0 324 100">
 <image height="100" width="324" xlink:href="marc.svg" y="0" x="0"/>
 <image height="100" width="324" xlink:href="corredor-base.svg" y="0" x="0"/>

 <path style="fill:#8b5742" d="m80.51 1v96h72.89v-96z"/>
 <path style="fill:#eec900" d="m78.51 1 2 31h2.49v-8h1v-3h1v-3h1v-4h1v-2h1v-2h1v-2h1v-1h1v-2h1v-1h1v-2h1v-1zm15.49 1v1h5v1h11v1h11v1h12v1h11v1h6v-1h1v-1h1v-1h1.4v-4h-58.4v1zm58 4v1h-1v1h1v1h-1v1h-1v2h-1v1h-1v1h-1v1h-1v2h-1v1h-1v3h-1v4h-1v3h-5v4h18.4l-2-26zm-20 7v2h3v-2zm0 3v2h3v-2zm0 6v2h3v-2zm0 3v2h3v-2zm0 3v2h3v-2zm8 7v11h1v2h1v2h1v2h1v2h1v2h1v2h1v1h1v2h1v1h4.4l2-27zm-53 24.12h-0.96l0.01-2.24-1.05-0.01v-2.87h-1v-3h-1v-3h-1v-11h-1.49l-2 38h2.49v-1h3v-1h4v-1h4v-2h-1v-2h-1v-1h-1v-2.008h-1v-2.695h-1"/>
 <path style="fill:#f5f5f5" d="m128 9v53h20v-1h-1v-2h-1v-1h-1v-2h-1v-2h-1v-2h-1v-2h-1v-2h-1v-2h-1v-10h-3v-1h-1v-4h-4v-19h5v16h1v-1h4v-2h1v-4h1v-3h1v-1h1v-2h1v-1h1v-1h1v-1h1v-2h1v-1zm4 10v2h3v-2zm-9 44v1h-9v1h-9v1h-9v1h-3v1h1v2h1v2h3v-1h6v-1h5v-1h5v-1h6v-1h5v-1h6v-1h5v-1h5v-1zm18 1v1h-5v1h-5v1h-6v1h-5v1h-6v1h-5v1h-5v1h-6v1h-3v-1h-3v1h-4v1h-4v1h-3v1h-0.49l-2 21h76.89l-2-34h-3.4v1h-1v-1h-2v1z"/>
 <path style="fill:#5cacee" d="m91 7v1h-1v2h-1v2h-1v2h-1v4h-1v3h-1v4h-1v1h3v1h3v1h1v2h1v4h-1v1h-1v1h-1v1h-5v12h1v2h1v3h1v2h1v3h1v2h1v2h1v2h1v1h4v-1h9v-57h-4v-1h-9zm0 23h-1v-2h-3v-1h-4v-1h-4.49l2 6h10.49zm15-22v56h8v-1h9v-1h4v-53h-8v-1zm26 20v1h3v-1zm5 0v1h-1v3h19.4l-0.2695-4z"/>
</svg>
