<?xml version="1.0" encoding="UTF-8" standalone="no"?>
<svg xmlns="http://www.w3.org/2000/svg" height="100" width="324" version="1.1" viewBox="0 0 324 100">
 <path style="fill:#000000" d="m0 0v100h324v-100h-324zm1 1h320v96h-320v-96z"/>
 <rect style="fill:#fff" height="1" width="2" y="0" x="322"/>
 <rect style="fill:#fff" height="2" width="1" y="98" x="0"/>
 <rect style="fill:#e0e0e0" height="1" width="2" y="1" x="322"/>
 <rect style="fill:#e0e0e0" height="2" width="1" y="98" x="1"/>
 <rect style="fill:#c1c1c1" height="1" width="2" y="2" x="322"/>
 <rect style="fill:#c1c1c1" height="2" width="1" y="98" x="2"/>
 <rect style="fill:#a2a2a2" height="1" width="2" y="3" x="322"/>
 <rect style="fill:#a2a2a2" height="2" width="1" y="98" x="3"/>
 <rect style="fill:#838383" height="1" width="2" y="4" x="322"/>
 <rect style="fill:#838383" height="2" width="1" y="98" x="4"/>
 <rect style="fill:#646464" height="1" width="2" y="5" x="322"/>
 <rect style="fill:#646464" height="2" width="1" y="98" x="5"/>
 <rect style="fill:#454545" height="1" width="2" y="6" x="322"/>
 <rect style="fill:#454545" height="2" width="1" y="98" x="6"/>
 <rect style="fill:#262626" height="1" width="2" y="7" x="322"/>
 <rect style="fill:#262626" height="2" width="1" y="98" x="7"/>
</svg>
