<?xml version="1.0" encoding="UTF-8" standalone="no"?>
<svg xmlns="http://www.w3.org/2000/svg" xmlns:xlink="http://www.w3.org/1999/xlink" height="100" width="324" version="1.1" viewBox="0 0 324 100">
 <path style="fill:#2f4f4f" d="m49 3v28h53v-28h-52zm1 1h51v26h-51zm10 4v1h20v-1zm20 1v1h2v-1zm2 1v1h2v-1zm2 1v1h1v15h-29v-16h-1v17h31v-17zm-28 0h2v-1h-2zm2-1h2v-1h-2zm33-1v19h5v-19h-4zm1 1h3v2h-3zm0 3h3v2h-3zm-33 3v2h2v1h2v1h2v1h12v-1h2v-1h2v-1h1v-2h-7v2h-10v-2zm33 3h3v2h-3zm0 6h3v2h-3z"/>
 <rect style="fill:#8b5742" height="2" width="3" y="16" x="92"/>
 <rect style="fill:#ee2c2c" height="2" width="3" y="22" x="92"/>
 <path style="fill:#2f4f4f" d="m49 35v28h53v-28zm1 1h51v26h-51zm12 3v1h16v-1zm16 1v1h3v-1zm3 1v1h3v-1zm3 1v1h1v16h-29v-17h-1v18h31v-18h-1zm-28 0h3v-1h-3zm3-1h3v-1h-3zm32 0v19h5v-19zm1 1h3v2h-3zm0 3h3v2h-3zm-33 3v1h2v1h2v1h2v1h12v-1h2v-1h2v-1h1v-1h-7v1h-1v1h-7v-1h-2v-1zm33 3h3v2h-3zm0 6h3v2h-3z"/>
 <rect style="fill:#8b5742" height="2" width="3" y="48" x="92"/>
 <rect style="fill:#ee2c2c" height="2" width="3" y="54" x="92"/>
 <path style="fill:#2f4f4f" d="m0.9375 3v1h40.06v26h-40.06l-0.0025 1h40.06 1v-1-26-1h-1-40.06zm0 5v1h19.06v-1h-19.06zm19.06 1v1h2v-1h-2zm2 1v1h2v-1h-2zm2 1v1h1v15h-24.06l-0.0025 1h25.06v-1-16h-2zm7-2v1 2 1 2 4 2 4 2 1h5v-1-17-1h-1-3-1zm1 1h3v2h-3v-2zm0 3h3v2h-3v-2zm-31.06 3v2h0.0625v1h2v1h2v1h12v-1h2v-1h2v-1h1v-2h-7v2h-10v-2h-4.062zm31.06 3h3v2h-3v-2zm0 6h3v2h-3v-2z"/>
 <rect style="fill:#8b5742" height="2" width="3" y="16" x="32"/>
 <rect style="fill:#ee2c2c" height="2" width="3" y="22" x="32"/>
 <path style="fill:#2f4f4f" d="m0.9375 66v1h40.03v26h-40.03l-0.0025 1h40.03 1v-1-26-1h-1-40.03zm0 5v1h19.03v-1h-19.03zm19.03 1v1h2v-1h-2zm2 1v1h2v-1h-2zm2 1v1h1v15h-24.03l-0.0025 1h25.03v-1-16h-2zm7-2v1 2 1 2 4 2 4 2 1h5v-1-17-1h-1-3-1zm1 1h3v2h-3v-2zm0 3h3v2h-3v-2zm-31.03 3v2h0.0352v1h2v1h2v1h12v-1h2v-1h2v-1h1v-2h-7v2h-9.997v-2h-4.036zm31.03 3h3v2h-3v-2zm0 6h3v2h-3v-2z"/>
 <rect style="fill:#8b5742" height="2" width="3" y="79" x="31.97"/>
 <rect style="fill:#ee2c2c" height="2" width="3" y="85" x="31.97"/>
 <path d="m48.97 66v28h53v-28h-52zm1 1h51v26h-51.03zm10 4v1h20v-1zm20 1v1h2v-1zm2 1v1h2v-1zm2 1v1h1v15h-29v-16h-1v17h31v-17zm-28 0h2v-1h-2zm2-1h2v-1h-2zm33-1v19h5v-19h-4zm1 1h3v2h-3zm0 3h3v2h-3zm-33 3v2h2v1h2v1h2v1h12v-1h2v-1h2v-1h1v-2h-7v2h-10v-2zm33 3h3v2h-3zm0 6h3v2h-3z" style="fill:#2f4f4f"/>
 <rect style="fill:#8b5742" height="2" width="3" y="79" x="91.97"/>
 <rect style="fill:#ee2c2c" height="2" width="3" y="85" x="91.97"/>
 <path style="fill:#2f4f4f" d="m109 66v28h53v-28h-52zm1 1h51v26h-51zm10 4v1h20v-1zm20 1v1h2v-1zm2 1v1h2v-1zm2 1v1h1v15h-29v-16h-1v17h31v-17zm-28 0h2v-1h-2zm2-1h2v-1h-2zm33-1v19h5v-19h-4zm1 1h3v2h-3zm0 3h3v2h-3zm-33 3v2h2v1h2v1h2v1h12v-1h2v-1h2v-1h1v-2h-7v2h-10v-2zm33 3h3v2h-3zm0 6h3v2h-3z"/>
 <rect style="fill:#8b5742" height="2" width="3" y="79" x="152"/>
 <rect style="fill:#ee2c2c" height="2" width="3" y="85" x="152"/>
 <path d="m169 66v28h53v-28h-52zm1 1h51v26h-51zm10 4v1h20v-1zm20 1v1h2v-1zm2 1v1h2v-1zm2 1v1h1v15h-29v-16h-1v17h31v-17zm-28 0h2v-1h-2zm2-1h2v-1h-2zm33-1v19h5v-19h-4zm1 1h3v2h-3zm0 3h3v2h-3zm-33 3v2h2v1h2v1h2v1h12v-1h2v-1h2v-1h1v-2h-7v2h-10v-2zm33 3h3v2h-3zm0 6h3v2h-3z" style="fill:#2f4f4f"/>
 <rect style="fill:#8b5742" height="2" width="3" y="79" x="212"/>
 <rect style="fill:#ee2c2c" height="2" width="3" y="85" x="212"/>
 <path style="fill:#2f4f4f" d="m169 2.709v28h53v-28h-52zm1 1h51v26h-51zm10 4v1h20v-1zm20 1v1h2v-1zm2 1v1h2v-1zm2 1v1h1v15h-29v-16h-1v17h31v-17zm-28 0h2v-1h-2zm2-1h2v-1h-2zm33-1v19h5v-19h-4zm1 1h3v2h-3zm0 3h3v2h-3zm-33 3v2h2v1h2v1h2v1h12v-1h2v-1h2v-1h1v-2h-7v2h-10v-2zm33 3h3v2h-3zm0 6h3v2h-3z"/>
 <rect style="fill:#8b5742" height="2" width="3" y="15.71" x="212"/>
 <rect style="fill:#ee2c2c" height="2" width="3" y="21.71" x="212"/>
 <path style="fill:#2f4f4f" d="m229 66v28h53v-28h-52zm1 1h51v26h-51zm10 4v1h20v-1zm20 1v1h2v-1zm2 1v1h2v-1zm2 1v1h1v15h-29v-16h-1v17h31v-17zm-28 0h2v-1h-2zm2-1h2v-1h-2zm33-1v19h5v-19h-4zm1 1h3v2h-3zm0 3h3v2h-3zm-33 3v2h2v1h2v1h2v1h12v-1h2v-1h2v-1h1v-2h-7v2h-10v-2zm33 3h3v2h-3zm0 6h3v2h-3z"/>
 <rect style="fill:#8b5742" height="2" width="3" y="79" x="272"/>
 <rect style="fill:#ee2c2c" height="2" width="3" y="85" x="272"/>
 <path style="fill:#2f4f4f" d="m289 66v1 26 1h1 31v-1h-31v-26h31v-1h-31-1zm11 5v1h20v-1h-20zm20 1v1h1v-1h-1zm-20 0h-2v1h2v-1zm-2 1h-2v1h2v-1zm-2 1h-1v16 1h26v-1h-25v-16zm3 5v2h2v1h2v1h2v1h12v-1h2v-1h2v-3h-6v2h-10v-2h-6z"/>
 <path d="m229 2.709v28h53v-28h-52zm1 1h51v26h-51zm10 4v1h20v-1zm20 1v1h2v-1zm2 1v1h2v-1zm2 1v1h1v15h-29v-16h-1v17h31v-17zm-28 0h2v-1h-2zm2-1h2v-1h-2zm33-1v19h5v-19h-4zm1 1h3v2h-3zm0 3h3v2h-3zm-33 3v2h2v1h2v1h2v1h12v-1h2v-1h2v-1h1v-2h-7v2h-10v-2zm33 3h3v2h-3zm0 6h3v2h-3z" style="fill:#2f4f4f"/>
 <rect style="fill:#8b5742" height="2" width="3" y="15.71" x="272"/>
 <rect style="fill:#ee2c2c" height="2" width="3" y="21.71" x="272"/>
 <path style="fill:#2f4f4f" d="m289 2.709v1 26 1h1 31v-1h-31v-26l31-0.001v-1h-31-1zm11 5v1h20v-1h-20zm20 1v1h1v-1h-1zm-20 0h-2v1h2v-1zm-2 1h-2v1.001h2v-1.001zm-2 1.001h-1v16 1h26v-1h-25v-16zm3 5v2h2v1h2v1h2v1h12v-1h2v-1h2v-3h-6v2h-10v-2h-6z"/>
 <path style="fill:#2f4f4f" d="m0.9375 35v1h40.06v26h-40.06l-0.0025 1h41.06v-1-27h-41.06zm1.062 4v1h16v-1h-16zm16 1v1h3v-1h-3zm3 1v1h3v-1h-3zm3 1v1h1v16h-24.06l-0.0025 1h24.06 1v-1-16-1h-1-1zm-22-2h-1.062l-0.0005 1h1.062v-1zm29 1v1 2 1 8 4 3h5v-1-2-4-12h-5zm1 1h3v2h-3v-2zm0 3h3v2h-3v-2zm-31.06 3v1h0.0625v1h2v1h2v1h12v-1h2v-1h2v-1h1v-1h-7v1h-1v1h-7v-1h-2v-1h-4.062zm31.06 3h3v2h-3v-2zm0 6h3v2h-3v-2z"/>
 <rect style="fill:#8b5742" height="2" width="3" y="48" x="32"/>
 <rect style="fill:#ee2c2c" height="2" width="3" y="54" x="32"/>
 <path d="m109 35v28h53v-28zm1 1h51v26h-51zm12 3v1h16v-1zm16 1v1h3v-1zm3 1v1h3v-1zm3 1v1h1v16h-29v-17h-1v18h31v-18h-1zm-28 0h3v-1h-3zm3-1h3v-1h-3zm32 0v19h5v-19zm1 1h3v2h-3zm0 3h3v2h-3zm-33 3v1h2v1h2v1h2v1h12v-1h2v-1h2v-1h1v-1h-7v1h-1v1h-7v-1h-2v-1zm33 3h3v2h-3zm0 6h3v2h-3z" style="fill:#2f4f4f"/>
 <rect style="fill:#8b5742" height="2" width="3" y="48" x="152"/>
 <rect style="fill:#ee2c2c" height="2" width="3" y="54" x="152"/>
 <path style="fill:#2f4f4f" d="m169 35v28h53v-28zm1 1h51v26h-51zm12 3v1h16v-1zm16 1v1h3v-1zm3 1v1h3v-1zm3 1v1h1v16h-29v-17h-1v18h31v-18h-1zm-28 0h3v-1h-3zm3-1h3v-1h-3zm32 0v19h5v-19zm1 1h3v2h-3zm0 3h3v2h-3zm-33 3v1h2v1h2v1h2v1h12v-1h2v-1h2v-1h1v-1h-7v1h-1v1h-7v-1h-2v-1zm33 3h3v2h-3zm0 6h3v2h-3z"/>
 <rect style="fill:#8b5742" height="2" width="3" y="48" x="212"/>
 <rect style="fill:#ee2c2c" height="2" width="3" y="54" x="212"/>
 <path d="m229 35v28h53v-28zm1 1h51v26h-51zm12 3v1h16v-1zm16 1v1h3v-1zm3 1v1h3v-1zm3 1v1h1v16h-29v-17h-1v18h31v-18h-1zm-28 0h3v-1h-3zm3-1h3v-1h-3zm32 0v19h5v-19zm1 1h3v2h-3zm0 3h3v2h-3zm-33 3v1h2v1h2v1h2v1h12v-1h2v-1h2v-1h1v-1h-7v1h-1v1h-7v-1h-2v-1zm33 3h3v2h-3zm0 6h3v2h-3z" style="fill:#2f4f4f"/>
 <rect style="fill:#8b5742" height="2" width="3" y="48" x="272"/>
 <rect style="fill:#ee2c2c" height="2" width="3" y="54" x="272"/>
 <path style="fill:#2f4f4f" d="m289 35v1 26 1h32v-1h-31v-26h31v-1h-32zm13 4v1h16v-1h-16zm16 1v1h3v-1h-3zm-16 0h-3v1h3v-1zm-3 1h-3v1h3v-1zm-3 1h-1v17 1h26v-1h-25v-17zm3 6v1h2v1h2v1h2v1h12v-1h2v-1h2v-2h-6v1h-1v1h-7v-1h-2v-1h-6z"/>
 <path d="m109 3v28h53v-28h-52zm1 1h51v26h-51zm10 4v1h20v-1zm20 1v1h2v-1zm2 1v1h2v-1zm2 1v1h1v15h-29v-16h-1v17h31v-17zm-28 0h2v-1h-2zm2-1h2v-1h-2zm33-1v19h5v-19h-4zm1 1h3v2h-3zm0 3h3v2h-3zm-33 3v2h2v1h2v1h2v1h12v-1h2v-1h2v-1h1v-2h-7v2h-10v-2zm33 3h3v2h-3zm0 6h3v2h-3z" style="fill:#2f4f4f"/>
 <rect style="fill:#8b5742" height="2" width="3" y="16" x="152"/>
 <rect style="fill:#ee2c2c" height="2" width="3" y="22" x="152"/>
 <path style="fill:#8b5742" d="m179 14.71v1h1v1h1v1h2v1h2v1h12v-1h2v-1h2v-2h1v-1h-5v1h-2v1h-1v1h-7v-1h-2v-1h-1v-1zm60 0v1h1v1h1v1h2v1h2v1h12v-1h2v-1h2v-2h1v-1h-5v1h-2v1h-1v1h-7v-1h-2v-1h-1v-1zm60 0v1h1v1h1v1h2v1h2v1h12v-1h2v-1h1.998v-3h-3.998v1h-2v1h-1v1h-7v-1h-2v-1h-1v-1zm-298.1 0.29v2h0.0625v1h2v1h2v1h12v-1h2v-1h2v-2h1v-1h-5v1h-2v1h-1v1h-7v-1h-2v-1h-1v-1zm58.06 0v1h1v1h1v1h2v1h2v1h12v-1h2v-1h2v-2h1v-1h-5v1h-2v1h-1v1h-7v-1h-2v-1h-1v-1zm60 0v1h1v1h1v1h2v1h2v1h12v-1h2v-1h2v-2h1v-1h-5v1h-2v1h-1v1h-7v-1h-2v-1h-1v-1zm-118.1 32v1h0.0625v1h2v1h2v1h12v-1h2v-1h2v-1h1v-1h-5v1h-2v1h-1v1h-7v-1h-2v-1h-1v-1zm58.06 0v1h2v1h2v1h2v1h12v-1h2v-1h2v-1h1v-1h-5v1h-2v1h-1v1h-7v-1h-2v-1h-1v-1zm60 0v1h2v1h2v1h2v1h12v-1h2v-1h2v-1h1v-1h-5v1h-2v1h-1v1h-7v-1h-2v-1h-1v-1zm60 0v1h2v1h2v1h2v1h12v-1h2v-1h2v-1h1v-1h-5v1h-2v1h-1v1h-7v-1h-2v-1h-1v-1zm60 0v1h2v1h2v1h2v1h12v-1h2v-1h2v-1h1v-1h-5v1h-2v1h-1v1h-7v-1h-2v-1h-1v-1zm60 0v1h2v1h2v1h2v1h12v-1h2v-1h1.971v-2h-4v1h-2v1h-1v1h-7v-1h-2v-1h-1v-1zm-298.1 31v2h0.03516v1h2v1h2v1h12v-1h2v-1h2v-2h1v-1h-5v1h-2v1h-1v1h-6.997v-1h-2v-1h-1v-1zm58.04 0v1h1v1h1v1h2v1h2v1h12v-1h2v-1h2v-2h1v-1h-5v1h-2v1h-1v1h-7v-1h-2v-1h-1v-1zm60 0v1h1v1h1v1h2v1h2v1h12v-1h2v-1h2v-2h1v-1h-5v1h-2v1h-1v1h-7v-1h-2v-1h-1v-1zm60 0v1h1v1h1v1h2v1h2v1h12v-1h2v-1h2v-2h1v-1h-5v1h-2v1h-1v1h-7v-1h-2v-1h-1v-1zm60 0v1h1v1h1v1h2v1h2v1h12v-1h2v-1h2v-2h1v-1h-5v1h-2v1h-1v1h-7v-1h-2v-1h-1v-1zm60 0v1h1v1h1v1h2v1h2v1h12v-1h2v-1h1.998v-3h-3.998v1h-2v1h-1v1h-7v-1h-2v-1h-1v-1z"/>
</svg>
